<svg version="1.1" id="Layer_1" xmlns="http://www.w3.org/2000/svg" xmlns:xlink="http://www.w3.org/1999/xlink" x="0px" y="0px"
	 width="100%" viewBox="0 0 250 250" enable-background="new 0 0 250 250" xml:space="preserve">
<path fill="#000000" opacity="1.000000" stroke="none" 
	d="
M167.000000,251.000000 
	C111.333336,251.000000 56.166672,251.000000 1.000007,251.000000 
	C1.000005,167.666672 1.000005,84.333351 1.000003,1.000019 
	C84.333321,1.000012 167.666641,1.000012 250.999969,1.000006 
	C250.999969,84.333313 250.999969,167.666626 250.999985,250.999969 
	C223.166672,251.000000 195.333328,251.000000 167.000000,251.000000 
M59.363819,197.808167 
	C87.918846,197.877380 116.473869,197.952942 145.028931,197.977066 
	C145.699997,197.977631 146.371552,197.400528 147.927032,197.004898 
	C162.843628,196.460556 175.551178,192.175217 182.161102,176.307999 
	C183.390656,171.876190 184.620224,167.444382 186.009460,162.168976 
	C186.031082,155.767593 186.052704,149.366226 185.995667,142.176208 
	C184.390350,134.768265 181.143600,128.495178 173.743240,124.284843 
	C172.938416,123.836388 172.133591,123.387939 171.973190,123.298561 
	C176.342072,119.889053 180.729874,116.464806 185.738174,112.765106 
	C188.102158,107.847519 190.466125,102.929924 193.191727,97.277306 
	C193.739273,92.183434 194.286835,87.089561 194.917831,81.492096 
	C194.644836,81.312012 194.371857,81.131935 194.006561,80.228844 
	C193.947952,79.506165 193.889328,78.783493 193.966751,77.298470 
	C192.658936,74.496185 191.351120,71.693901 189.983368,68.179810 
	C188.808853,66.442825 187.846405,64.504936 186.423599,63.003178 
	C179.811905,56.024529 171.057541,53.729530 161.076950,52.017467 
	C136.190521,52.012527 111.304054,51.989685 86.417786,52.049477 
	C85.003754,52.052872 83.591339,52.733242 81.756119,53.795708 
	C80.897514,59.530628 80.038918,65.265549 79.022644,71.780457 
	C78.683212,74.575523 78.343781,77.370598 78.467018,80.891205 
	C103.599831,80.873573 128.732635,80.855942 154.530746,80.976395 
	C154.983093,80.999275 155.435425,81.022156 156.173141,81.684532 
	C160.667252,85.173111 161.856964,89.653152 160.017822,95.750206 
	C157.848267,103.447128 153.592529,107.517784 146.100403,108.018372 
	C123.083611,108.010529 100.066788,107.986595 77.050125,108.037186 
	C75.751785,108.040039 74.454781,108.655457 72.793228,109.715462 
	C72.249710,113.167618 71.706200,116.619766 70.749474,120.773842 
	C69.802612,127.508232 68.855751,134.242615 67.276588,141.311142 
	C67.153198,143.223587 67.029816,145.136047 66.678009,147.813354 
	C66.081436,152.195358 65.484863,156.577362 64.206886,161.397812 
	C63.862576,164.271439 63.518269,167.145081 63.013424,170.798203 
	C62.734463,172.839478 62.455498,174.880768 62.037468,177.594040 
	C61.995235,178.049042 61.952999,178.504044 61.222466,179.399353 
	C60.549915,184.943283 59.877369,190.487213 59.091278,196.487457 
	C59.091278,196.487457 59.195992,196.946960 59.363819,197.808167 
z"/>
<path fill="#019DF4" opacity="1.000000" stroke="none" 
	d="
M71.162689,120.071922 
	C71.706200,116.619766 72.249710,113.167618 73.433815,109.353500 
	C97.380745,109.021164 120.687096,109.050797 144.024475,109.466049 
	C144.677689,113.798866 147.798508,113.024834 150.297455,112.941933 
	C154.679779,112.796547 159.059052,112.018684 163.425491,112.119118 
	C166.489532,112.189590 169.516479,113.709587 172.584610,113.807068 
	C176.749985,113.939407 180.938873,113.331154 185.117676,113.040543 
	C180.729874,116.464806 176.342072,119.889053 171.973190,123.298561 
	C172.133591,123.387939 172.938416,123.836388 173.840775,124.983109 
	C168.826675,129.600876 162.384888,129.601196 156.614059,130.327332 
	C148.546295,131.342453 140.209335,130.165375 131.985977,130.007690 
	C112.917770,129.642059 93.848488,129.331650 74.780197,128.969940 
	C73.825584,128.951843 72.876160,128.660568 72.131302,128.532181 
	C71.787148,125.526253 71.474915,122.799088 71.162689,120.071922 
z"/>
<path fill="#01B8FE" opacity="1.000000" stroke="none" 
	d="
M162.005508,52.168568 
	C171.057541,53.729530 179.811905,56.024529 186.423599,63.003178 
	C187.846405,64.504936 188.808853,66.442825 189.900574,68.885971 
	C189.249237,70.171005 188.722702,71.203537 188.105850,71.260643 
	C178.914291,72.111610 169.717865,72.955109 160.504608,73.491730 
	C158.466431,73.610451 156.365234,72.114700 154.282043,72.082840 
	C143.861603,71.923462 133.435699,72.125534 123.015114,71.970695 
	C108.401932,71.753571 93.791771,71.333649 79.180313,71.000473 
	C80.038918,65.265549 80.897514,59.530628 82.423553,53.418053 
	C107.485313,53.027046 131.879684,53.032200 156.273865,52.964539 
	C158.185135,52.959240 160.095001,52.445827 162.005508,52.168568 
z"/>
<path fill="#017DE8" opacity="1.000000" stroke="none" 
	d="
M181.822189,176.989761 
	C175.551178,192.175217 162.843628,196.460556 147.056931,196.963959 
	C144.445480,196.890335 142.704132,196.857635 140.606018,196.625946 
	C138.774231,196.283401 137.299271,196.015579 135.824173,196.014771 
	C110.284409,196.000717 84.744606,196.019516 59.204819,196.031128 
	C59.877369,190.487213 60.549915,184.943283 62.020016,179.188141 
	C67.936401,178.756683 73.084656,178.089615 78.166954,178.424286 
	C85.226936,178.889145 92.228851,180.764954 99.271004,180.856796 
	C112.213249,181.025558 125.165085,180.205704 138.116028,180.040253 
	C148.539139,179.907074 158.967056,180.111221 169.392090,180.231277 
	C170.325302,180.242020 171.594498,180.440674 172.124222,181.055084 
	C174.444733,183.746536 175.940628,182.433014 177.703720,180.394623 
	C178.852783,179.066132 180.434357,178.111740 181.822189,176.989761 
z"/>
<path fill="#0184EA" opacity="1.000000" stroke="none" 
	d="
M181.991638,176.648880 
	C180.434357,178.111740 178.852783,179.066132 177.703720,180.394623 
	C175.940628,182.433014 174.444733,183.746536 172.124222,181.055084 
	C171.594498,180.440674 170.325302,180.242020 169.392090,180.231277 
	C158.967056,180.111221 148.539139,179.907074 138.116028,180.040253 
	C125.165085,180.205704 112.213249,181.025558 99.271004,180.856796 
	C92.228851,180.764954 85.226936,178.889145 78.166954,178.424286 
	C73.084656,178.089615 67.936401,178.756683 62.364166,178.967987 
	C61.952999,178.504044 61.995235,178.049042 62.329197,177.004807 
	C62.805271,174.283279 62.989616,172.151001 63.173962,170.018707 
	C63.518269,167.145081 63.862576,164.271439 64.884796,161.279007 
	C69.356102,167.946899 75.182594,167.122559 81.713188,166.374207 
	C86.406654,165.836349 89.548538,163.646545 92.905884,161.408844 
	C92.660583,164.171860 92.344925,166.529099 92.003265,169.183731 
	C106.652596,169.637863 121.327805,169.814240 136.003525,169.916595 
	C137.273026,169.925446 138.545929,169.445038 140.196442,169.111679 
	C144.024704,166.674377 147.473801,164.317322 151.329132,162.043396 
	C163.076111,163.604462 174.392090,166.036728 185.849777,163.012573 
	C184.620224,167.444382 183.390656,171.876190 181.991638,176.648880 
z"/>
<path fill="#0296F1" opacity="1.000000" stroke="none" 
	d="
M70.956078,120.422882 
	C71.474915,122.799088 71.787148,125.526253 72.131302,128.532181 
	C72.876160,128.660568 73.825584,128.951843 74.780197,128.969940 
	C93.848488,129.331650 112.917770,129.642059 131.985977,130.007690 
	C140.209335,130.165375 148.546295,131.342453 156.614059,130.327332 
	C162.384888,129.601196 168.826675,129.600876 173.990341,125.284157 
	C181.143600,128.495178 184.390350,134.768265 185.770630,142.787689 
	C184.540558,143.890808 183.581055,144.654572 182.523376,144.831497 
	C173.090912,146.409332 163.637711,147.129349 154.014313,144.661789 
	C152.964737,139.669678 150.047501,136.757645 145.537689,134.683533 
	C129.769760,134.300949 114.291405,134.188034 98.812859,134.133423 
	C98.254417,134.131454 97.693939,134.704407 97.077713,135.417679 
	C96.625885,138.215622 96.230759,140.605316 95.447845,143.002686 
	C88.884506,143.021515 82.708412,142.992142 76.533783,143.073776 
	C75.082809,143.092957 73.636787,143.487015 71.973610,143.741486 
	C71.973610,142.432846 71.973610,141.406143 71.973610,139.925720 
	C70.389671,140.335388 69.149277,140.656189 67.908890,140.977005 
	C68.855751,134.242615 69.802612,127.508232 70.956078,120.422882 
z"/>
<path fill="#01B2FD" opacity="1.000000" stroke="none" 
	d="
M79.101479,71.390465 
	C93.791771,71.333649 108.401932,71.753571 123.015114,71.970695 
	C133.435699,72.125534 143.861603,71.923462 154.282043,72.082840 
	C156.365234,72.114700 158.466431,73.610451 160.504608,73.491730 
	C169.717865,72.955109 178.914291,72.111610 188.105850,71.260643 
	C188.722702,71.203537 189.249237,70.171005 189.930542,69.241882 
	C191.351120,71.693901 192.658936,74.496185 193.729675,77.903488 
	C193.694702,79.322960 193.896774,80.137405 194.098862,80.951859 
	C194.371857,81.131935 194.644836,81.312012 194.541382,81.824524 
	C191.395996,82.792656 188.578766,84.126762 185.866745,83.939224 
	C175.854919,83.246902 165.877884,82.051376 155.887772,81.045044 
	C155.435425,81.022156 154.983093,80.999275 153.895081,80.633209 
	C128.174393,80.248573 103.089363,80.207123 78.004341,80.165665 
	C78.343781,77.370598 78.683212,74.575523 79.101479,71.390465 
z"/>
<path fill="#018DEE" opacity="1.000000" stroke="none" 
	d="
M154.176712,145.001328 
	C163.637711,147.129349 173.090912,146.409332 182.523376,144.831497 
	C183.581055,144.654572 184.540558,143.890808 185.809952,143.182007 
	C186.052704,149.366226 186.031082,155.767593 185.929626,162.590775 
	C174.392090,166.036728 163.076111,163.604462 151.381165,161.648682 
	C152.076889,155.781006 153.126801,150.391159 154.176712,145.001328 
z"/>
<path fill="#02A5F6" opacity="1.000000" stroke="none" 
	d="
M185.427917,112.902817 
	C180.938873,113.331154 176.749985,113.939407 172.584610,113.807068 
	C169.516479,113.709587 166.489532,112.189590 163.425491,112.119118 
	C159.059052,112.018684 154.679779,112.796547 150.297455,112.941933 
	C147.798508,113.024834 144.677689,113.798866 144.348389,109.434769 
	C145.439316,108.734581 146.237366,108.451302 147.035431,108.168015 
	C153.592529,107.517784 157.848267,103.447128 160.423721,95.497101 
	C162.175659,96.121414 163.500931,97.720428 164.871063,97.759842 
	C174.185471,98.027748 183.509308,97.966972 192.830109,98.012344 
	C190.466125,102.929924 188.102158,107.847519 185.427917,112.902817 
z"/>
<path fill="#02ACF9" opacity="1.000000" stroke="none" 
	d="
M193.010925,97.644821 
	C183.509308,97.966972 174.185471,98.027748 164.871063,97.759842 
	C163.500931,97.720428 162.175659,96.121414 160.498535,95.120537 
	C161.856964,89.653152 160.667252,85.173111 156.030457,81.364792 
	C165.877884,82.051376 175.854919,83.246902 185.866745,83.939224 
	C188.578766,84.126762 191.395996,82.792656 194.499664,82.076324 
	C194.286835,87.089561 193.739273,92.183434 193.010925,97.644821 
z"/>
<path fill="#018DEE" opacity="1.000000" stroke="none" 
	d="
M67.592735,141.144073 
	C69.149277,140.656189 70.389671,140.335388 71.973610,139.925720 
	C71.973610,141.406143 71.973610,142.432846 71.973610,143.741486 
	C73.636787,143.487015 75.082809,143.092957 76.533783,143.073776 
	C82.708412,142.992142 88.884506,143.021515 95.520187,143.422760 
	C95.357567,147.238052 94.734833,150.640976 93.806190,153.925598 
	C90.093353,156.855652 86.159737,157.574081 81.735725,156.732605 
	C79.317307,156.272598 76.821854,156.070374 74.356720,156.031357 
	C67.565567,155.923843 67.595589,155.982986 67.787262,149.264481 
	C67.808083,148.534790 67.214836,147.787582 66.906425,147.048492 
	C67.029816,145.136047 67.153198,143.223587 67.592735,141.144073 
z"/>
<path fill="#018AEC" opacity="1.000000" stroke="none" 
	d="
M66.792221,147.430923 
	C67.214836,147.787582 67.808083,148.534790 67.787262,149.264481 
	C67.595589,155.982986 67.565567,155.923843 74.356720,156.031357 
	C76.821854,156.070374 79.317307,156.272598 81.735725,156.732605 
	C86.159737,157.574081 90.093353,156.855652 93.758789,154.331360 
	C93.623375,156.904648 93.229446,158.953842 92.835526,161.003036 
	C89.548538,163.646545 86.406654,165.836349 81.713188,166.374207 
	C75.182594,167.122559 69.356102,167.946899 65.225494,161.059784 
	C65.484863,156.577362 66.081436,152.195358 66.792221,147.430923 
z"/>
<path fill="#DBE3F4" opacity="1.000000" stroke="none" 
	d="
M140.962784,196.824951 
	C142.704132,196.857635 144.445480,196.890335 146.614853,197.007965 
	C146.371552,197.400528 145.699997,197.977631 145.028931,197.977066 
	C116.473869,197.952942 87.918846,197.877380 59.735260,197.396057 
	C87.058731,196.930954 114.010757,196.877945 140.962784,196.824951 
z"/>
<path fill="#0066E1" opacity="1.000000" stroke="none" 
	d="
M140.606018,196.625946 
	C114.010757,196.877945 87.058731,196.930954 59.651348,196.965454 
	C59.195992,196.946960 59.091278,196.487457 59.148048,196.259293 
	C84.744606,196.019516 110.284409,196.000717 135.824173,196.014771 
	C137.299271,196.015579 138.774231,196.283401 140.606018,196.625946 
z"/>
<path fill="#93D1F6" opacity="1.000000" stroke="none" 
	d="
M161.541229,52.093018 
	C160.095001,52.445827 158.185135,52.959240 156.273865,52.964539 
	C131.879684,53.032200 107.485313,53.027046 82.634583,53.069466 
	C83.591339,52.733242 85.003754,52.052872 86.417786,52.049477 
	C111.304054,51.989685 136.190521,52.012527 161.541229,52.093018 
z"/>
<path fill="#B7DFF0" opacity="1.000000" stroke="none" 
	d="
M78.235680,80.528435 
	C103.089363,80.207123 128.174393,80.248573 153.562439,80.564171 
	C128.732635,80.855942 103.599831,80.873573 78.235680,80.528435 
z"/>
<path fill="#2FAFE9" opacity="1.000000" stroke="none" 
	d="
M146.567917,108.093201 
	C146.237366,108.451302 145.439316,108.734581 144.317352,109.049141 
	C120.687096,109.050797 97.380745,109.021164 73.615784,108.988647 
	C74.454781,108.655457 75.751785,108.040039 77.050125,108.037186 
	C100.066788,107.986595 123.083611,108.010529 146.567917,108.093201 
z"/>
<path fill="#017DE8" opacity="1.000000" stroke="none" 
	d="
M63.093693,170.408447 
	C62.989616,172.151001 62.805271,174.283279 62.398731,176.668808 
	C62.455498,174.880768 62.734463,172.839478 63.093693,170.408447 
z"/>
<path fill="#02ACF9" opacity="1.000000" stroke="none" 
	d="
M194.052704,80.590347 
	C193.896774,80.137405 193.694702,79.322960 193.661652,78.284660 
	C193.889328,78.783493 193.947952,79.506165 194.052704,80.590347 
z"/>
<path fill="#000000" opacity="1.000000" stroke="none" 
	d="
M92.905884,161.408844 
	C93.229446,158.953842 93.623375,156.904648 94.064697,154.449677 
	C94.734833,150.640976 95.357567,147.238052 95.907967,143.415070 
	C96.230759,140.605316 96.625885,138.215622 97.534760,135.412537 
	C113.974754,134.987030 129.901001,134.974915 145.827240,134.962799 
	C150.047501,136.757645 152.964737,139.669678 154.014313,144.661789 
	C153.126801,150.391159 152.076889,155.781006 150.974945,161.565552 
	C147.473801,164.317322 144.024704,166.674377 139.747620,169.048172 
	C123.289497,169.005371 107.659386,168.945847 92.029266,168.886322 
	C92.344925,166.529099 92.660583,164.171860 92.905884,161.408844 
z"/>
<path fill="#72B3F1" opacity="1.000000" stroke="none" 
	d="
M92.003265,169.183716 
	C107.659386,168.945847 123.289497,169.005371 139.368439,169.128403 
	C138.545929,169.445038 137.273026,169.925446 136.003525,169.916595 
	C121.327805,169.814240 106.652596,169.637863 92.003265,169.183716 
z"/>
<path fill="#72B3F1" opacity="1.000000" stroke="none" 
	d="
M145.537689,134.683533 
	C129.901001,134.974915 113.974754,134.987030 97.591461,135.004288 
	C97.693939,134.704407 98.254417,134.131454 98.812859,134.133423 
	C114.291405,134.188034 129.769760,134.300949 145.537689,134.683533 
z"/>
</svg>